<svg id="Layer_1" data-name="Layer 1" xmlns="http://www.w3.org/2000/svg" viewBox="0 0 731.06 507.49"><title>quoteballon</title><path d="M805.5,732.5c-26.13,16.87-89.09,52.27-175,51-32.58-.48-113-2.9-182-64-14.7-13-74.36-67.47-83-156-12.78-130.93,97.67-217.18,112-228,71.08-53.66,147.16-56.16,203-58,43.75-1.44,141-3.31,231,59,35.25,24.42,92.82,64.29,100,130,4.61,42.18-11.86,92.11-41,127-23.75,28.44-42.42,30.7-43,46-1.76,46.63,169.65,79.49,167,97C1092.75,748,1015.86,749.72,805.5,732.5Z" transform="translate(-363.97 -276.54)" style="fill:#fff;stroke:#000;stroke-miterlimit:10"/></svg>